<?xml version="1.0" encoding="utf-8"?>
<!-- Generator: Adobe Illustrator 19.0.0, SVG Export Plug-In . SVG Version: 6.00 Build 0)  -->
<svg version="1.1" id="Layer_1" xmlns="http://www.w3.org/2000/svg" xmlns:xlink="http://www.w3.org/1999/xlink" x="0px" y="0px"
	 viewBox="-49 141 512 512" style="enable-background:new -49 141 512 512;" xml:space="preserve">
<style type="text/css">
	.st0{fill:#D29B6E;}
	.st1{fill:#59D8FF;}
	.st2{fill:#00C3F0;}
	.st3{fill:#F0C087;}
	.st4{fill:#E6AF78;}
	.st5{fill:#694B4B;}
	.st6{fill:#5A4146;}
	.st7{fill:#D5DCED;}
	.st8{fill:#AFB9D2;}
	.st9{fill:#FFFFFF;}
	.st10{fill:#F5DCB4;}
</style>
<path class="st0" d="M117.4,352.7v27.7c0,4.2-2.7,7.9-6.8,9.2l-42.1,12.9C60.5,405,55,412.4,55,420.8v69.8c0,13.3,10.7,24,24,24h12
	h126v-162H117.4z"/>
<path class="st1" d="M151,424.7c-23.2,0-43.7-12.2-55.5-30.5l-27,8.3C60.5,405,55,412.4,55,420.8v69.8c0,13.3,10.7,24,24,24h12h126
	v-156C217,395,187.3,424.7,151,424.7z"/>
<g>
	<path class="st2" d="M217,358.7c0,36.3-29.7,66-66,66c-23.2,0-43.7-12.2-55.5-30.5l-11.9,3.7c13.5,23.2,38.6,38.8,67.4,38.8
		c27.8,0,52.2-14.6,66-36.6V358.7z"/>
	<path class="st2" d="M157,484.7H97c-3.3,0-6-2.7-6-6v-28.5c0-4.8-1.9-9.4-5.3-12.7L58.4,410c-2.1,3.1-3.4,6.8-3.4,10.8v69.8
		c0,13.3,10.7,24,24,24h12h84v-12C175,492.7,166.9,484.7,157,484.7z"/>
</g>
<path class="st3" d="M202,310.7h-0.9l-2.1-42h-95.3v42H100c-5,0-9,4-9,9v12c0,5,4,9,9,9h5.7l1,6.1c0.7,4.6,3.1,8.7,6.7,11.7
	l19.3,16.1c2.6,2.2,5.9,3.3,9.2,3.3h18.4c3.4,0,6.6-1.2,9.2-3.3l19.3-16.1c3.6-3,5.9-7.1,6.7-11.7l1-6.1h5.7c5,0,9-4,9-9v-12
	C211,314.7,207,310.7,202,310.7z"/>
<path class="st4" d="M199,268.7h-60h-35.2v42H100c-5,0-9,4-9,9v12c0,5,4,9,9,9h5.7l1,6.1c0.7,4.6,3.1,8.7,6.7,11.7l19.3,16.1
	c2.6,2.2,5.9,3.3,9.2,3.3h7.6l-8.6-25.7c-1.2-3.7-1.8-7.5-1.8-11.4v-36.2c0-3.3,2.7-6,6-6l0,0c0,0,6,0,8.4-2.9
	c3.7,1.9,7.8,2.9,12,2.9c4.2,0,8.3-1,12-2.9c3.7,1.9,7.8,2.9,12,2.9c0.6,0,1.2,0,1.8-0.1l9.3,0L199,268.7z"/>
<path class="st5" d="M223,267.5c0-6.6-4.5-12.2-10.7-13.8c0.7-1.7,1.1-3.5,1.1-5.4c0-8-6.4-14.4-14.4-14.4c-0.3,0-0.6,0.1-0.9,0.1
	c-2-5.6-7.3-9.7-13.5-9.7c-1.5,0-3,0.3-4.4,0.8c-3.1-3.4-7.5-5.6-12.4-5.6c-1.3,0-2.5,0.2-3.7,0.4c-3.4-3.2-8-5.2-13.1-5.2
	s-9.7,2-13.1,5.2c-1.2-0.3-2.4-0.4-3.7-0.4c-4.6,0-8.7,1.8-11.8,4.8c-0.1,0-0.2,0-0.2,0c-6.3,0-11.6,4.1-13.5,9.7
	c-0.3,0-0.6-0.1-0.9-0.1c-8,0-14.4,6.4-14.4,14.4c0,1.9,0.4,3.7,1.1,5.4c-6.1,1.7-10.7,7.2-10.7,13.8c0,3.7,1.4,7,3.7,9.6
	c-2.3,2.6-3.7,5.9-3.7,9.6c0,5.3,2.9,9.9,7.2,12.4c0.2,6.4,5.5,11.6,12,11.6h5.2c2.3,0,4.3-1.7,4.7-4l3.3-20.1
	c0.4,0,0.7,0.1,1.1,0.1c5,0,9.4-2.6,12-6.5c2.6,3.9,7,6.5,12,6.5c5,0,9.4-2.6,12-6.5c2.6,3.9,7,6.5,12,6.5c5,0,9.4-2.6,12-6.5
	c2.6,3.9,7,6.5,12,6.5c0.4,0,0.7-0.1,1.1-0.1l3.3,20.1c0.4,2.3,2.4,4,4.7,4h6.4c6.6,0,12-5.4,12-12c0-0.1,0-0.2,0-0.4
	c3.6-2.6,6-6.8,6-11.6c0-3.7-1.4-7-3.7-9.6C221.6,274.5,223,271.2,223,267.5z"/>
<path class="st6" d="M147.5,276.2c-5.6-2-9.7-7.3-9.7-13.5c0-3.7,1.4-7,3.7-9.6c-2.3-2.6-3.7-5.9-3.7-9.6c0-6.6,4.5-12.2,10.7-13.8
	c-0.7-1.7-1.1-3.5-1.1-5.4c0-3.7,1.4-7,3.7-9.6c0,0-0.1,0-0.1,0c-5.1,0-9.7,2-13.1,5.2c-1.2-0.3-2.4-0.4-3.7-0.4
	c-4.6,0-8.7,1.8-11.8,4.8c-0.1,0-0.2,0-0.2,0c-6.3,0-11.6,4.1-13.5,9.7c-0.3,0-0.6-0.1-0.9-0.1c-8,0-14.4,6.4-14.4,14.4
	c0,1.9,0.4,3.7,1.1,5.4c-6.1,1.7-10.7,7.2-10.7,13.8c0,3.7,1.4,7,3.7,9.6c-2.3,2.6-3.7,5.9-3.7,9.6c0,5.3,2.9,9.9,7.2,12.4
	c0.2,6.4,5.5,11.6,12,11.6h5.2c2.3,0,4.3-1.7,4.7-4l3.3-20.1c0.4,0,0.7,0.1,1.1,0.1c5,0,9.4-2.6,12-6.5c2.6,3.9,7,6.5,12,6.5
	c3.3,0,6.3-1.2,8.7-3.1c-1.6-1.7-2.7-4-2.7-6.5C147.4,276.8,147.5,276.5,147.5,276.2z"/>
<path class="st4" d="M139,484.7h18c9.9,0,18,8.1,18,18v12h-36V484.7z"/>
<path class="st7" d="M367,472.7H187c-9.9,0-18-8.1-18-18v-108c0-9.9,8.1-18,18-18h180c9.9,0,18,8.1,18,18v108
	C385,464.6,376.9,472.7,367,472.7z"/>
<path class="st8" d="M313,514.7l-10.6-79.6c-0.8-6-5.9-10.4-11.9-10.4h-27c-6,0-11.1,4.5-11.9,10.4L241,514.7v12h72L313,514.7
	L313,514.7z"/>
<circle class="st9" cx="277" cy="388.7" r="12"/>
<path class="st10" d="M379,538.7H43c-3.3,0-6-2.7-6-6v-12c0-3.3,2.7-6,6-6h336c3.3,0,6,2.7,6,6v12C385,536,382.3,538.7,379,538.7z"
	/>
</svg>
