<?xml version="1.0" encoding="utf-8"?>
<!-- Generator: Adobe Illustrator 19.0.0, SVG Export Plug-In . SVG Version: 6.00 Build 0)  -->
<svg version="1.1" id="Layer_1" xmlns="http://www.w3.org/2000/svg" xmlns:xlink="http://www.w3.org/1999/xlink" x="0px" y="0px"
	 viewBox="-51 143 508 508" style="enable-background:new -51 143 508 508;" xml:space="preserve">
<style type="text/css">
	.st0{fill:#FFFFFF;}
	.st1{fill:none;stroke:#84DBFF;stroke-width:0.5;stroke-miterlimit:10;}
	.st2{fill:none;stroke:#E6E9EE;stroke-width:0.5;stroke-miterlimit:10;}
	.st3{fill:#FF7058;}
</style>
<rect x="62.6" y="237.4" class="st0" width="280.8" height="318.8"/>
<g>
	<g>
		<line class="st1" x1="62.6" y1="289" x2="343.4" y2="289"/>
		<line class="st1" x1="62.6" y1="294.2" x2="343.4" y2="294.2"/>
	</g>
	<g>
		<line class="st2" x1="62.6" y1="318.2" x2="343.4" y2="318.2"/>
		<line class="st2" x1="62.6" y1="342.2" x2="343.4" y2="342.2"/>
		<line class="st2" x1="62.6" y1="366.2" x2="343.4" y2="366.2"/>
		<line class="st2" x1="62.6" y1="390.2" x2="343.4" y2="390.2"/>
		<line class="st2" x1="62.6" y1="414.2" x2="343.4" y2="414.2"/>
		<line class="st2" x1="62.6" y1="438.2" x2="343.4" y2="438.2"/>
		<line class="st2" x1="62.6" y1="462.2" x2="343.4" y2="462.2"/>
		<line class="st2" x1="62.6" y1="486.2" x2="343.4" y2="486.2"/>
		<line class="st2" x1="62.6" y1="510.2" x2="343.4" y2="510.2"/>
		<line class="st2" x1="62.6" y1="533.8" x2="343.4" y2="533.8"/>
	</g>
</g>
<g>
	<path class="st3" d="M213.8,459l-11.2-9.6L179.4,461l0.8,14.4l-13.2,6.4l-3.2-67.2l12-6l51.2,44L213.8,459z M177.8,428.2l0.8,19.6
		l14-6.8L177.8,428.2z"/>
	<path class="st3" d="M240.2,435.4l-6.8-14.4l-14,6.8l-4.8-9.6l14-6.8l-7.2-14.4l10.8-5.2l6.8,14.4l14-6.8l4.8,9.6l-14,6.8l6.8,14.4
		L240.2,435.4z"/>
	<path class="st3" d="M297.8,383.8c0,0,0.8,1.6,1.6,4c0.8,1.2,1.2,3.2,1.6,5.2c0.8,2,0.8,4.4,1.2,7.2c0.4,5.6-0.4,12.4-2.8,19.6
		s-6.4,15.2-12,22.8c-11.2,15.2-28,30.4-48.8,41.6c-5.2,2.8-10.8,5.2-16,8c-5.6,2.4-11.6,4.4-17.6,6.4c-12,3.6-24.4,5.6-37.2,6
		c-12.8,0-25.6-1.6-37.6-7.2c-11.6-5.2-21.2-16-24.8-27.6c-3.2-12.8-0.8-24.4,3.6-34.8c4.4-10,10.8-18.4,17.2-25.6
		s12.8-12.8,19.2-17.2c3.2-2.4,6-4.4,8.8-6c2.8-2,5.2-3.6,7.6-4.8c4.8-2.8,8.4-4.8,11.2-6s4-2,4-2s-1.2,0.8-4,2.4
		c-2.4,1.6-6.4,3.6-10.8,6.4c-2.4,1.6-4.8,3.2-7.2,5.2c-2.8,2-5.6,4-8.4,6.4c-6,4.8-12,10.8-18,17.6S117,426.6,113,436.2
		s-5.6,20.8-2.8,31.2c3.2,10.8,11.2,19.6,22,24.4c10.8,5.2,22.8,6.8,34.8,6.8s24.4-2,36-5.6c6-1.6,11.6-3.6,16.8-5.6
		c5.6-2.4,10.8-4.8,16-7.6c10-5.6,19.6-11.2,27.6-18s15.2-14,20.8-21.2c5.6-7.2,10-14.8,12.8-21.6c2.8-6.8,4-13.6,4-18.8
		c0-2.8,0-5.2-0.4-7.2s-0.4-4-1.2-5.2C298.2,385,297.8,383.8,297.8,383.8z"/>
</g>
</svg>
