<?xml version="1.0" encoding="utf-8"?>
<!-- Generator: Adobe Illustrator 19.0.0, SVG Export Plug-In . SVG Version: 6.00 Build 0)  -->
<svg version="1.1" id="Layer_1" xmlns="http://www.w3.org/2000/svg" xmlns:xlink="http://www.w3.org/1999/xlink" x="0px" y="0px"
	 viewBox="-51 143 508 508" style="enable-background:new -51 143 508 508;" xml:space="preserve">
<style type="text/css">
	.st0{fill:#FFFFFF;}
	.st1{fill:#E6E9EE;}
	.st2{fill:#FF7058;}
	.st3{fill:#4CDBC4;}
	.st4{fill:#324A5E;}
	.st5{fill:#84DBFF;}
</style>
<polygon class="st0" points="70.2,226.2 70.2,567.4 279.4,567.4 279.4,511.4 335.8,511.4 335.8,226.2 "/>
<polygon class="st1" points="279.4,567.4 335.8,511.4 279.4,511.4 "/>
<rect x="101.8" y="254.6" class="st2" width="39.6" height="39.6"/>
<rect x="101.8" y="309.8" class="st3" width="39.6" height="39.6"/>
<rect x="101.8" y="364.6" class="st4" width="39.6" height="39.6"/>
<rect x="101.8" y="419.8" class="st5" width="39.6" height="39.6"/>
<g>
	<rect x="151.8" y="254.6" class="st1" width="152.4" height="8.8"/>
	<rect x="151.8" y="272.6" class="st1" width="92.4" height="8.8"/>
	<rect x="151.8" y="309.8" class="st1" width="152.4" height="8.8"/>
	<rect x="151.8" y="327.8" class="st1" width="92.4" height="8.8"/>
	<rect x="151.8" y="364.6" class="st1" width="152.4" height="8.8"/>
	<rect x="151.8" y="383" class="st1" width="92.4" height="8.8"/>
	<rect x="151.8" y="419.8" class="st1" width="152.4" height="8.8"/>
	<rect x="151.8" y="437.8" class="st1" width="92.4" height="8.8"/>
</g>
</svg>
