<?xml version="1.0" encoding="utf-8"?>
<!-- Generator: Adobe Illustrator 19.0.0, SVG Export Plug-In . SVG Version: 6.00 Build 0)  -->
<svg version="1.2" baseProfile="tiny" id="Layer_1" xmlns="http://www.w3.org/2000/svg" xmlns:xlink="http://www.w3.org/1999/xlink"
	 x="0px" y="0px" viewBox="0 0 900 900" xml:space="preserve">
<g id="XMLID_56_">
	<g id="XMLID_58_">
		<path id="XMLID_66_" fill="#FFC099" d="M436.5,489.2c0,0,505.6,57.3,443.7-256.4c0,0-33.4-29.2-55.1,9c0,0,71.3,231.3-373.9,191.1
			L436.5,489.2z"/>
		<path id="XMLID_65_" fill="#FFC099" d="M894.5,161.8c6.7,50.8-9.8,94.9-37,98.4c-27.1,3.6-54.5-34.7-61.2-85.5
			c-6.7-50.8,9.8-94.9,37-98.4C860.5,72.8,887.8,111,894.5,161.8z"/>
		<path id="XMLID_64_" fill="#FFC099" d="M827.8,236.5c-4.7,6.3-25-1-45-16.2c-20.1-15.3-32.6-32.7-27.8-39c4.7-6.3,24.9,1,45,16.2
			C820.1,212.9,832.6,230.3,827.8,236.5z"/>
		<image width="124" height="164" id="XMLID_59_" xlink:href="1388058F.png"  transform="matrix(1 0 0 1 753 76)">
		</image>
	</g>
	<image width="42" height="27" id="XMLID_57_" xlink:href="1388058D.png"  transform="matrix(1 0 0 1 817 206)">
	</image>
</g>
<path id="XMLID_55_" fill="#FFFFFF" d="M517.4,832.6c0.1,21-19.8,38.2-44.4,38.3l-202.3,0.8c-24.6,0.1-44.7-16.8-44.8-38l-1.4-376.2
	c-0.1-21,19.8-38.2,44.4-38.3l202.3-0.8c24.6-0.1,44.7,16.8,44.8,38L517.4,832.6z"/>
<g id="XMLID_52_">
	<path id="XMLID_54_" fill="#FDBF98" d="M374.2,468.3l-22.5-0.6c-17.2-0.3-30.9-14.8-30.5-31.9l1.2-51.4
		c0.3-17.2,14.8-30.9,31.9-30.5l22.5,0.6c17.2,0.5,30.9,14.8,30.5,31.9l-1.2,51.4C405.7,455,391.4,468.6,374.2,468.3z"/>
	<image width="88" height="115" id="XMLID_53_" xlink:href="13880593.png"  transform="matrix(1 0 0 1 321 324)">
	</image>
</g>
<path id="XMLID_51_" fill="#FDBF98" d="M428.8,387.8l-57.3,7.5c-58.1,7.6-111.8-33.8-119.4-91.9l-11.6-89.2
	c-7.6-58.1,33.8-111.8,91.9-119.4l57.3-7.5c58.1-7.6,111.8,33.8,119.4,91.8l11.6,89.2C528.3,326.5,486.9,380.2,428.8,387.8z"/>
<path id="XMLID_50_" fill="#FB9494" d="M449.3,303.8l-9,1.2c-8.4,1.1-16.1-4.9-17.2-13.2L409.4,187c-0.6-4.2,2.4-8,6.6-8.5l24.2-3.2
	c4.3-0.6,8.1,2.5,8.7,6.8l13.7,104.7C463.5,295,457.5,302.8,449.3,303.8z"/>
<path id="XMLID_49_" fill="#D18080" d="M441.8,304.8l5.7-0.8c5.3-0.7,9.7-3.8,12.3-8.1c-18.4,6.2-26.2-2-26.2-2l-15.2-115.9
	l-1.8,0.2c-4.6,0.6-7.9,4.9-7.3,9.5L422.6,290C423.9,299.4,432.5,306.1,441.8,304.8z"/>
<path id="XMLID_48_" fill="#501C10" d="M388.2,226.3c2,15.3-2.3,28.5-9.4,29.4c-7.2,0.9-14.6-10.7-16.6-26
	c-2-15.3,2.3-28.5,9.4-29.4C378.7,199.3,386.2,211,388.2,226.3z"/>
<path id="XMLID_47_" fill="#501C10" d="M486.4,219.8c2,15.3-2.3,28.5-9.4,29.4c-7.2,0.9-14.6-10.7-16.6-26
	c-2-15.3,2.3-28.5,9.4-29.4C477,192.9,484.3,204.5,486.4,219.8z"/>
<g id="XMLID_43_">
	<path id="XMLID_46_" fill="#251855" d="M465,321.5c0,0-81.3,10.1-106.3-28.4c0,0-22.6,60.6,29.7,76.8
		C458.2,391.4,465,321.5,465,321.5z"/>
	<path id="XMLID_45_" fill="#FB9494" d="M378.6,327.6l15.4,25.4c-14-23.3-32.1-32.8-40.1-36.1c-1.1,18.9,3.8,43.5,34.5,52.9
		c16.3,5,29.1,5.1,39.2,2.3C411.1,338,378.6,327.6,378.6,327.6z"/>
	<path id="XMLID_44_" fill="#FFFFFF" d="M364.2,300.2c12,16.4,44,48.1,98.7,21.6C451.5,322.9,391.2,327.4,364.2,300.2z"/>
</g>
<image width="269" height="224" id="XMLID_42_" xlink:href="13880595.png"  transform="matrix(1 0 0 1 241 87)">
</image>
<path id="XMLID_41_" fill="#FFFFFF" d="M477.5,418.6c0,0,138.3-1.1,154-10.6c0,0,31,30.5,15.3,105.4l-145.4-4.2L477.5,418.6z"/>
<polygon id="XMLID_40_" fill="#D9D6D6" points="312.1,424.4 312.1,407.9 357.2,427.4 364.6,475.6 328.3,471.1 "/>
<polygon id="XMLID_39_" fill="#D9D6D6" points="419.2,424.4 419.2,407.9 374.2,427.4 366.8,475.6 403.1,471.1 "/>
<g id="XMLID_34_">
	<g id="XMLID_36_">
		<g id="XMLID_37_">
			<path id="XMLID_38_" fill="#FFC099" d="M167.2,469.7c0,0-419.8,302.9,83.2,315.1c0,0,17-40.9-26.2-49.3c0,0-346.3,13.7-1.2-238.6
				L167.2,469.7z"/>
		</g>
	</g>
	<path id="XMLID_35_" fill="#FFFFFF" d="M87.9,497c0,0,30.9,66.5,76.5,82.8l114.3-102.1L260,422.5C260,422.5,144.9,416.6,87.9,497z"
		/>
</g>
<path id="XMLID_33_" fill="#33241C" d="M258.2,312.7c0,0,67-40,68.2-124.1c0,0,15.8-34,54.5-32.8c38.6,1.2,108.8,43.5,166.4,0
	c0,0-27.1,1-29.4-22.6c-4.4-46.8-120.2-154.8-237.7-46.8c0,0-78.4,23.7-79.5,80.2C199.2,242.1,193,296.1,258.2,312.7z"/>
<path id="XMLID_32_" fill="#20160F" d="M326.4,188.7c0,0,15.8-34,54.5-32.8c38.6,1.2,108.8,43.5,166.4,0c0,0-0.2,0-0.5,0
	c-32.4,8.1-91.9-3.8-91.9-3.8c31.3,3.6,43.4-9.6,43.4-9.6s-23.7,12.1-79.3-13.2s-97.1,8.5-97.1,8.5c-0.7,27.4-16.2,53.9-16.2,53.9
	l-9.4-47c-1.6,40.3-18.9,83.4-18.9,83.4l-4.1-47.4c-10.5,36.2-48.7,72.2-67.2,88c7.2,21.5,22.2,36.9,51.8,44.4
	C258.2,312.7,325.2,272.8,326.4,188.7z"/>
<g id="XMLID_29_">
	<path id="XMLID_31_" fill="#FDBF98" d="M274.5,254.9c10.3,25.9,6.6,51.8-8.5,57.9c-15,6-35.6-10.2-46-36.1
		c-10.3-26-6.6-51.9,8.5-57.9C243.5,212.8,264.1,228.9,274.5,254.9z"/>
	<image width="42" height="61" id="XMLID_30_" xlink:href="13880597.png"  transform="matrix(1 0 0 1 226 235)">
	</image>
</g>
<path id="XMLID_25_" fill="#1C1A1A" d="M527.6,236.7l-2.5-38.3c-0.7-10.5-9.2-18.7-19-18l-43.9,2.8c-9.8,0.7-17.2,9.7-16.5,20.2
	l0.2,2.9c-2.8-2.7-6.3-4.3-10.2-4.3c-4.5,0-8.6,2.3-11.6,5.9v-0.8c0-10.6-9.3-19.2-20.6-19.2h-41.7l0.1-0.1
	c-29.3-0.1-43.4,4.4-43.4,4.4l-69,30.1l8.5,6.9l63.9-25.7c0.3,2.3,5.5,1.7,10.3,0.7c-0.1,1-0.2,1.9-0.2,2.9v38.3
	c0,10.6,11.1,21.9,22.4,21.9h33.8c30.6-9.7,36.1-25.7,36.1-36.3v-11.6c3.1-3.6,7.1-5.9,11.6-5.9c4.2,0,8,1.9,11,5.1l0.6,8.7
	c0.7,10.6,6.3,26.2,33.4,34.3l29.1-1.9C519.6,259.1,528.3,247.3,527.6,236.7z M415.6,230.5c0,8.6-4.4,21.6-29.3,29.5h-27.5
	c-9.3,0-18.2-9.2-18.2-17.8v-31.2c0-5.1,2.6-9.5,6.7-12.4l4.9-2.4c1.7-0.6,3.4-0.8,5.3-0.8H399c9.3,0,16.7,7,16.7,15.6v19.4H415.6z
	 M505.5,252.6l-23.6,1.5c-21.9-6.4-26.6-19.2-27.1-27.8l-1.2-19.4c-0.6-8.6,5.4-15.9,13.5-16.5l35.6-2.3c7.9-0.6,14.8,6,15.4,14.6
	l2,31.1C520.5,242.4,513.4,252.1,505.5,252.6z"/>
<path id="XMLID_24_" fill="#533F33" d="M306.7,120.3c35.4-24.9,62.6-53.8,77.8-80.3c-4.9,0.1-9.7,0.5-14.7,1.1
	c-15.9,22-39.3,45.1-68.1,65.2c-34.1,24-69.3,39.6-98.7,45.5c-1.4,4.6-2,9.6-2.1,14.8c0,0.1,0,0.2,0,0.3
	C231.5,162.3,269.7,146.3,306.7,120.3z"/>
<path id="XMLID_23_" fill="#323232" d="M280.2,864.1c0,5.7-4.5,10.2-10.2,10.2l0,0c-5.7,0-10.2-4.5-10.2-10.2V426.2
	c0-5.7,4.5-10.2,10.2-10.2l0,0c5.7,0,10.2,4.5,10.2,10.2V864.1z"/>
<path id="XMLID_22_" fill="#323232" d="M475,864.1c0,5.7-4.5,10.2-10.2,10.2l0,0c-5.7,0-10.2-4.5-10.2-10.2V426.2
	c0-5.7,4.5-10.2,10.2-10.2l0,0c5.7,0,10.2,4.5,10.2,10.2V864.1z"/>
<path id="XMLID_21_" fill="#323232" d="M335.5,472c0,0,13.1,41.3,29.5,41.3s28-40.9,28-40.9L335.5,472z"/>
<polygon id="XMLID_20_" fill="#323232" points="364.6,490 364.6,835.8 335.5,811.7 350,490 "/>
<polygon id="XMLID_19_" fill="#323232" points="364.2,490 364.2,835.8 393.4,811.7 378.8,490 "/>
<g id="XMLID_11_">
	<path id="XMLID_18_" fill="#C61313" d="M275.4,803.2c0,15.5,12.6,28.2,28.2,28.2h129.2c15.5,0,28.2-12.6,28.2-28.2V640
		c0-15.5-12.6-28.2-28.2-28.2H303.4c-15.5,0-28.2,12.6-28.2,28.2v163.2H275.4z"/>
	<path id="XMLID_17_" fill="#B20B0B" d="M301.6,811.6c0,8.9-11.9,11.9-29.2,20l-20.4,9.4c-9.3,0-12.8-3.7-12.8-12.7V649.1
		c0-8.9,7.7-11.3,23.1-20.6l30.3-14.5c9.6,4.1,8.9,9.4,8.9,18.2V811.6z"/>
	<path id="XMLID_16_" fill="#D9D6D6" d="M281.9,797.4c0,14.5,11.6,26.1,26.1,26.1h120.2c14.5,0,26.1-11.6,26.1-26.1V645.8
		c0-14.5-11.6-26.1-26.1-26.1H308.1c-14.5,0-26.1,11.6-26.1,26.1V797.4z"/>
	<path id="XMLID_15_" fill="#FFFFFF" d="M275.4,800.7c0,14.5,11.6,26.1,26.1,26.1h120.2c14.5,0,26.1-11.6,26.1-26.1V649.1
		c0-14.5-11.6-26.1-26.1-26.1H301.5c-14.5,0-26.1,11.6-26.1,26.1V800.7z"/>
	<path id="XMLID_14_" fill="#D9D6D6" d="M267.8,805.7c0,14.5,11.6,26.1,26.1,26.1h120.2c14.5,0,26.1-11.6,26.1-26.1V654.1
		c0-14.5-11.6-26.1-26.1-26.1H293.9c-14.5,0-26.1,11.6-26.1,26.1V805.7z"/>
	<path id="XMLID_13_" fill="#FFFFFF" d="M260.3,807.9c0,14.5,11.6,26.1,26.1,26.1h120.2c14.5,0,26.1-11.6,26.1-26.1V656.3
		c0-14.5-11.6-26.1-26.1-26.1H286.5c-14.5,0-26.1,11.6-26.1,26.1V807.9z"/>
	<path id="XMLID_12_" fill="#ED1E1E" d="M239.3,819.4c0,15,12.6,27.1,28.2,27.1h129.2c15.5,0,28.2-12.2,28.2-27.1V661.6
		c0-15-12.6-27.1-28.2-27.1H267.3c-15.5,0-28.2,12.2-28.2,27.1v157.7H239.3z"/>
</g>
<g id="XMLID_3_">
	<path id="XMLID_10_" fill="#FFC099" d="M311.1,793.7c-50.8,6.8-94.9-9.7-98.5-36.9c-3.6-27.1,34.6-54.6,85.5-61.3
		c50.8-6.8,94.9,9.7,98.5,36.9C400.1,759.4,361.9,786.9,311.1,793.7z"/>
	<path id="XMLID_9_" fill="#FFC099" d="M236.3,727c-6.3-4.7,0.9-24.9,16.2-45.1c15.3-20.1,32.7-32.6,38.9-27.8
		c6.3,4.7-0.9,24.9-16.2,45C260,719.3,242.6,731.7,236.3,727z"/>
	<image width="164" height="123" id="XMLID_4_" xlink:href="13880594.png"  transform="matrix(1 0 0 1 233 653)">
	</image>
</g>
</svg>
